<svg version="1.1" id="BACKGROUND" xmlns="http://www.w3.org/2000/svg" xmlns:xlink="http://www.w3.org/1999/xlink" x="0" y="0" viewBox="0 0 1345.4 804" xml:space="preserve"><style>.st1{fill:#ccc}.st2{fill:#fc4c86}.st3{fill:#49ced9}.st4{fill:#003}.st5{fill:#fad141}.st6{opacity:.76}</style><defs><path id="SVGID_1_" d="M1.5.8h1343.8V803H1.5z"/></defs><use xlink:href="#SVGID_1_" overflow="visible" fill="#fff"/><clipPath id="SVGID_2_"><use xlink:href="#SVGID_1_" overflow="visible"/></clipPath><g clip-path="url(#SVGID_2_)"><path class="st1" d="M1007.9 448.2L1135 321l127.2 127.2L1135 575.3l-127.1-127.1m-17.1 0L1135 592.4l144.2-144.2L1135 303.9 990.8 448.2z"/><path class="st1" d="M1042.4 448.2l92.6-92.6 92.6 92.6-92.6 92.6-92.6-92.6m-12.4 0l105 105 105.1-105.1-105.1-105-105 105.1zM577.8-3.5L712-137.7 846.3-3.5 712.1 130.7 577.8-3.5m-18 0l152.3 152.3L864.3-3.5 712.1-155.8 559.8-3.5z"/><path class="st1" d="M614.3-3.5l97.8-97.8 97.8 97.8-97.8 97.8-97.8-97.8m-13.1 0l110.9 110.9L823-3.5 712.1-114.4 601.2-3.5z"/><g><path class="st1" d="M156.9 541.3l105.6-105.6 105.6 105.6-105.5 105.6-105.7-105.6m-14.2 0l119.8 119.8 119.8-119.8-119.7-119.9-119.9 119.9z"/><path class="st1" d="M185.6 541.3l77-77 77 77-77 77-77-77m-10.3 0l87.3 87.3 87.3-87.3-87.3-87.3-87.3 87.3z"/><g><path class="st1" d="M247.7 858l111.5-111.5L470.7 858 359.2 969.5 247.7 858m-15 0l126.5 126.5L485.7 858 359.2 731.5 232.7 858z"/><path class="st1" d="M278 858l81.2-81.2 81.2 81.2-81.2 81.2L278 858m-11 0l92.1 92.1 92.1-92.1-92.1-92.1L267 858z"/></g></g><g><path class="st2" d="M763.8 852.6c-8.5-44.2 19.4-88.7 56.1-114.8 36.7-26.1 81.1-38.3 123.5-53.4 83.3-29.7 164.2-74.4 218.7-144.1 25.8-32.9 45-70.6 70.6-103.6 25.6-33 60-62.4 101.3-68.7 56.8-8.7 113.9 30.7 136.6 83.5 22.7 52.8 15.5 114.7-7.6 167.3-23 52.6-60.5 97.5-99 140.1-48.5 53.7-99.3 105.3-152.5 154.4-11.1 10.2-22.7 20.6-37.1 25.1-17.6 5.5-36.6 1.4-54.6-2.8-118.7-27.5-237.4-54.9-356.1-82.4"/><path class="st3" d="M920.8 858.7c21.9-19.9 43.5-41.5 55-68.7 14.5-34.3 11.2-73.1 13.4-110.3 2.3-37.2 13.3-78.1 45.2-97.3 34.3-20.6 78.1-8.1 117.9-12.8 61.7-7.3 109.7-55.5 150.9-102 25.4-28.6 57.8-60.6 95.4-53.5 30.7 5.8 51.2 37.7 53.7 68.9s-8.9 61.7-21.1 90.5C1393.4 662.8 1346 748 1290 827.2c-11.5 16.3-24.1 32.9-41.9 41.8-24.7 12.3-54.1 7.3-81.3 2.9-79-12.8-159.1-18.5-239.1-17"/><path class="st4" d="M1033 920.1c39.2-13.1 56.6-58.2 65.5-98.5 9-40.3 16.9-85.4 49.6-110.6 24.9-19.2 58.7-21.9 90.1-19.8 31.4 2.1 62.9 8.2 94 3.7 42-6 82-31 124-24.8 28 4.2 54.6 25.1 59.2 53.1 4.7 28.4-13.5 56.3-36.5 73.7s-50.6 27.3-75.9 41.2c-49.7 27.3-89.3 69.6-135.7 102-46.4 32.5-106.1 55.3-159.5 36.3-27.9-9.9-50.9-30.3-71.3-51.8"/><path class="st5" d="M928.8 941c50.2-26.8 70.7-84.2 86.9-135.2 9.4-29.6 18.5-59.7 34.1-86.7 15.8-27.3 38.5-48.6 65.9-64 26.9-15.1 56.5-24.7 86.2-32.7 34.6-9.3 69.7-16.3 104.9-22.9 66.8-12.5 134.3-23.2 199.1-44.3 57.2-18.6 112.8-45.2 158.2-85.3 5.8-5.1 11.3-10.4 16.7-15.9.6-.7-.4-1.7-1-1-43.6 44.5-99.4 74.5-157.7 95.2-63.4 22.5-129.8 34.1-195.8 46.2-34.9 6.4-69.8 12.9-104.3 21.3-30 7.3-60.1 15.7-88.3 28.6-26.5 12.1-51.4 28.7-69.8 51.6-18.6 23.1-30.1 50.7-39.5 78.6-18.2 53.6-31.4 115.9-77.8 153.2-5.7 4.6-11.9 8.6-18.4 12.1-.9.4-.2 1.6.6 1.2z"/><path class="st2" d="M1031.1 964.4c43.4-8.5 83.1-33.5 109.3-69.2 30.3-41.2 40.5-93.2 63.8-138.2 24.6-47.5 58.1-89.7 90.8-131.9 17.6-22.6 35.2-45.3 52.7-67.9 15.7-20.2 31.4-40.8 50.5-58 43.6-39.4 101.9-48.8 158-56.6.9-.1.5-1.5-.4-1.4-48 6.7-98.6 14-139.6 41.9-20.7 14.1-37.6 32.8-53.2 52.2-17.5 21.8-34.4 44.1-51.6 66.2-32.6 41.9-66.6 83.3-94.1 128.9-13.1 21.7-24.1 44.4-33.4 68-9.4 24.1-17.8 48.8-29.9 71.8-25.2 47.8-70.3 82.4-123.5 92.9-.7.1-.3 1.5.6 1.3z"/><circle class="st2" cx="1118.1" cy="447.4" r="19.8"/><circle class="st3" cx="902.8" cy="650.3" r="19.8"/><circle transform="rotate(-80.758 732.103 731.934)" class="st5" cx="732.1" cy="731.9" r="8.1"/><g><g class="st6"><defs><circle id="SVGID_3_" transform="rotate(-80.914 978.032 523.866)" class="st6" cx="978" cy="523.8" r="45.7"/></defs><clipPath id="SVGID_4_"><use xlink:href="#SVGID_3_" overflow="visible"/></clipPath><g clip-path="url(#SVGID_4_)"><path class="st2" d="M926.1 486.4H1030v3.7H926.1zM926.1 469.6H1030v3.7H926.1zM926.1 478H1030v3.7H926.1zM926.1 494.8H1030v3.7H926.1zM926.1 503.2H1030v3.7H926.1zM926.1 511.6H1030v3.7H926.1zM926.1 520H1030v3.7H926.1zM926.1 528.4H1030v3.7H926.1zM926.1 536.8H1030v3.7H926.1zM926.1 545.2H1030v3.7H926.1zM926.1 553.6H1030v3.7H926.1zM926.1 562H1030v3.7H926.1zM926.1 570.4H1030v3.7H926.1z"/></g></g><g class="st6"><defs><circle id="SVGID_5_" transform="rotate(-76.714 57.729 472.8)" class="st6" cx="57.7" cy="472.8" r="45.7"/></defs><clipPath id="SVGID_6_"><use xlink:href="#SVGID_5_" overflow="visible"/></clipPath><g clip-path="url(#SVGID_6_)"><path class="st5" d="M5.8 435.3h103.9v3.7H5.8zM5.8 418.5h103.9v3.7H5.8zM5.8 426.9h103.9v3.7H5.8zM5.8 443.7h103.9v3.7H5.8zM5.8 452.1h103.9v3.7H5.8zM5.8 460.5h103.9v3.7H5.8zM5.8 468.9h103.9v3.7H5.8zM5.8 477.3h103.9v3.7H5.8zM5.8 485.7h103.9v3.7H5.8zM5.8 494.1h103.9v3.7H5.8zM5.8 502.5h103.9v3.7H5.8zM5.8 510.9h103.9v3.7H5.8zM5.8 519.3h103.9v3.7H5.8z"/></g></g><image width="103" height="103" xlink:href="2BD8EEDB4818BF0B.png" transform="translate(790.376 665.954)" overflow="visible" opacity=".15"/><circle class="st2" cx="849.9" cy="725.8" r="27.1"/><image width="212" height="189" xlink:href="2BD8EEDB4818BF09.png" transform="translate(70.376 582.954)" overflow="visible" opacity=".15"/><circle transform="rotate(-56.441 156.68 656.327)" cx="156.7" cy="656.3" fill="none" stroke="#49ced9" stroke-width="3" stroke-miterlimit="10" r="39.8"/><circle transform="rotate(-57.214 142.481 696.102)" class="st3" cx="142.5" cy="696.1" r="39.8"/><circle transform="rotate(-15.539 246.356 735.85)" class="st5" cx="246.4" cy="735.9" r="19.6"/><g><path d="M890.2 155.9v58.4h58.4v-58.4h-58.4 0z" fill="none" stroke="#fc4c86" stroke-width="3" stroke-miterlimit="10"/><path class="st2" d="M878.5 144.3v58.4h58.4v-58.4h-58.4z"/></g><g><path class="st1" d="M1229.2-27.7a6.7 6.7 0 11-6.7-6.7c3.6-.1 6.7 3 6.7 6.7zM1263.8-27.7a6.7 6.7 0 11-6.7-6.7c3.7-.1 6.7 3 6.7 6.7zM1298.4-27.7a6.7 6.7 0 11-6.7-6.7c3.7-.1 6.7 3 6.7 6.7zM1333.1-27.7a6.7 6.7 0 11-6.7-6.7c3.7-.1 6.7 3 6.7 6.7zM1367.7-27.7a6.7 6.7 0 11-6.7-6.7c3.7-.1 6.7 3 6.7 6.7zM1402.4-27.7a6.7 6.7 0 11-6.7-6.7c3.7-.1 6.7 3 6.7 6.7z"/><g><path class="st1" d="M1229.2 6.9a6.7 6.7 0 11-6.7-6.7c3.6 0 6.7 3 6.7 6.7zM1263.8 6.9a6.7 6.7 0 11-13.4 0 6.7 6.7 0 0113.4 0zM1298.4 6.9a6.7 6.7 0 11-13.4 0 6.7 6.7 0 0113.4 0zM1333.1 6.9a6.7 6.7 0 11-13.4 0 6.7 6.7 0 0113.4 0zM1367.7 6.9a6.7 6.7 0 11-13.4 0 6.7 6.7 0 0113.4 0zM1402.4 6.9a6.7 6.7 0 11-13.4 0 6.7 6.7 0 0113.4 0z"/></g><g><path class="st1" d="M1229.2 41.6a6.7 6.7 0 11-6.7-6.7c3.6-.1 6.7 2.9 6.7 6.7zM1263.8 41.6a6.7 6.7 0 11-6.7-6.7c3.7-.1 6.7 2.9 6.7 6.7zM1298.4 41.6a6.7 6.7 0 11-6.7-6.7c3.7-.1 6.7 2.9 6.7 6.7zM1333.1 41.6a6.7 6.7 0 11-6.7-6.7c3.7-.1 6.7 2.9 6.7 6.7zM1367.7 41.6a6.7 6.7 0 11-6.7-6.7c3.7-.1 6.7 2.9 6.7 6.7zM1402.4 41.6a6.7 6.7 0 11-6.7-6.7c3.7-.1 6.7 2.9 6.7 6.7z"/></g><g><path class="st1" d="M1229.2 76.2a6.7 6.7 0 11-6.7-6.7c3.6 0 6.7 3 6.7 6.7zM1263.8 76.2a6.7 6.7 0 11-13.4 0 6.7 6.7 0 0113.4 0zM1298.4 76.2a6.7 6.7 0 11-13.4 0 6.7 6.7 0 0113.4 0zM1333.1 76.2a6.7 6.7 0 11-13.4 0 6.7 6.7 0 0113.4 0zM1367.7 76.2a6.7 6.7 0 11-13.4 0 6.7 6.7 0 0113.4 0zM1402.4 76.2a6.7 6.7 0 11-13.4 0 6.7 6.7 0 0113.4 0z"/></g><g><path class="st1" d="M1229.2 110.8a6.7 6.7 0 11-6.7-6.7c3.6 0 6.7 3 6.7 6.7zM1263.8 110.8a6.7 6.7 0 11-13.4 0 6.7 6.7 0 0113.4 0zM1298.4 110.8a6.7 6.7 0 11-13.4 0 6.7 6.7 0 0113.4 0zM1333.1 110.8a6.7 6.7 0 11-13.4 0 6.7 6.7 0 0113.4 0zM1367.7 110.8a6.7 6.7 0 11-13.4 0 6.7 6.7 0 0113.4 0zM1402.4 110.8a6.7 6.7 0 11-13.4 0 6.7 6.7 0 0113.4 0z"/></g><g><path class="st1" d="M1229.2 145.5a6.7 6.7 0 11-6.7-6.7c3.6 0 6.7 3 6.7 6.7zM1263.8 145.5a6.7 6.7 0 11-13.4 0 6.7 6.7 0 0113.4 0zM1298.4 145.5a6.7 6.7 0 11-13.4 0 6.7 6.7 0 0113.4 0zM1333.1 145.5a6.7 6.7 0 11-13.4 0 6.7 6.7 0 0113.4 0zM1367.7 145.5a6.7 6.7 0 11-13.4 0 6.7 6.7 0 0113.4 0zM1402.4 145.5a6.7 6.7 0 11-13.4 0 6.7 6.7 0 0113.4 0z"/></g><g><path class="st1" d="M-93.4 574.4a6.7 6.7 0 11-6.7-6.7c3.7-.1 6.7 3 6.7 6.7zM-58.7 574.4a6.7 6.7 0 11-6.7-6.7c3.7-.1 6.7 3 6.7 6.7zM-24.1 574.4a6.7 6.7 0 11-6.7-6.7c3.7-.1 6.7 3 6.7 6.7zM10.6 574.4a6.7 6.7 0 11-6.7-6.7c3.7-.1 6.7 3 6.7 6.7zM45.2 574.4a6.7 6.7 0 11-6.7-6.7c3.7-.1 6.7 3 6.7 6.7zM79.9 574.4a6.7 6.7 0 11-6.7-6.7c3.6-.1 6.7 3 6.7 6.7z"/><g><path class="st1" d="M-93.4 609a6.7 6.7 0 11-13.4 0 6.7 6.7 0 0113.4 0zM-58.7 609a6.7 6.7 0 11-13.4 0 6.7 6.7 0 0113.4 0zM-24.1 609a6.7 6.7 0 11-13.4 0 6.7 6.7 0 0113.4 0zM10.6 609a6.7 6.7 0 11-13.4 0 6.7 6.7 0 0113.4 0zM45.2 609a6.7 6.7 0 11-13.4 0 6.7 6.7 0 0113.4 0zM79.9 609a6.7 6.7 0 11-6.7-6.7c3.6 0 6.7 3 6.7 6.7z"/></g><g><path class="st1" d="M-93.4 643.7a6.7 6.7 0 11-6.7-6.7c3.7-.1 6.7 2.9 6.7 6.7zM-58.7 643.7a6.7 6.7 0 11-6.7-6.7c3.7-.1 6.7 2.9 6.7 6.7zM-24.1 643.7a6.7 6.7 0 11-6.7-6.7c3.7-.1 6.7 2.9 6.7 6.7zM10.6 643.7a6.7 6.7 0 11-6.7-6.7c3.7-.1 6.7 2.9 6.7 6.7zM45.2 643.7a6.7 6.7 0 11-6.7-6.7c3.7-.1 6.7 2.9 6.7 6.7zM79.9 643.7a6.7 6.7 0 11-6.7-6.7c3.6-.1 6.7 2.9 6.7 6.7z"/></g><g><path class="st1" d="M-93.4 678.3a6.7 6.7 0 11-13.4 0 6.7 6.7 0 0113.4 0zM-58.7 678.3a6.7 6.7 0 11-13.4 0 6.7 6.7 0 0113.4 0zM-24.1 678.3a6.7 6.7 0 11-13.4 0 6.7 6.7 0 0113.4 0zM10.6 678.3a6.7 6.7 0 11-13.4 0 6.7 6.7 0 0113.4 0zM45.2 678.3a6.7 6.7 0 11-13.4 0 6.7 6.7 0 0113.4 0zM79.9 678.3a6.7 6.7 0 11-6.7-6.7c3.6 0 6.7 3 6.7 6.7z"/></g><g><path class="st1" d="M-93.4 713a6.7 6.7 0 11-6.7-6.7c3.7-.1 6.7 2.9 6.7 6.7zM-58.7 713a6.7 6.7 0 11-6.7-6.7c3.7-.1 6.7 2.9 6.7 6.7zM-24.1 713a6.7 6.7 0 11-6.7-6.7c3.7-.1 6.7 2.9 6.7 6.7zM10.6 713a6.7 6.7 0 11-6.7-6.7c3.7-.1 6.7 2.9 6.7 6.7zM45.2 713a6.7 6.7 0 11-6.7-6.7c3.7-.1 6.7 2.9 6.7 6.7zM79.9 713a6.7 6.7 0 11-6.7-6.7c3.6-.1 6.7 2.9 6.7 6.7z"/></g><g><path class="st1" d="M-93.4 747.6a6.7 6.7 0 11-13.4 0 6.7 6.7 0 0113.4 0zM-58.7 747.6a6.7 6.7 0 11-13.4 0 6.7 6.7 0 0113.4 0zM-24.1 747.6a6.7 6.7 0 11-13.4 0 6.7 6.7 0 0113.4 0zM10.6 747.6a6.7 6.7 0 11-13.4 0 6.7 6.7 0 0113.4 0zM45.2 747.6a6.7 6.7 0 11-13.4 0 6.7 6.7 0 0113.4 0zM79.9 747.6a6.7 6.7 0 11-6.7-6.7c3.6 0 6.7 3 6.7 6.7z"/></g></g><g><path class="st1" d="M515.2 751.7a6.7 6.7 0 11-6.7-6.7c3.7-.1 6.7 2.9 6.7 6.7zM549.8 751.7a6.7 6.7 0 11-6.7-6.7c3.7-.1 6.7 2.9 6.7 6.7zM584.5 751.7a6.7 6.7 0 11-6.7-6.7c3.7-.1 6.7 2.9 6.7 6.7zM619.1 751.7a6.7 6.7 0 11-6.7-6.7c3.7-.1 6.7 2.9 6.7 6.7zM653.8 751.7a6.7 6.7 0 11-6.7-6.7c3.6-.1 6.7 2.9 6.7 6.7zM688.4 751.7a6.7 6.7 0 11-6.7-6.7c3.7-.1 6.7 2.9 6.7 6.7z"/><g><path class="st1" d="M515.2 786.3a6.7 6.7 0 11-13.4 0 6.7 6.7 0 0113.4 0zM549.8 786.3a6.7 6.7 0 11-13.4 0 6.7 6.7 0 0113.4 0zM584.5 786.3a6.7 6.7 0 11-13.4 0 6.7 6.7 0 0113.4 0zM619.1 786.3a6.7 6.7 0 11-13.4 0 6.7 6.7 0 0113.4 0zM653.8 786.3a6.7 6.7 0 11-6.7-6.7c3.6 0 6.7 3 6.7 6.7zM688.4 786.3a6.7 6.7 0 11-13.4 0 6.7 6.7 0 0113.4 0z"/></g><g><path class="st1" d="M515.2 821a6.7 6.7 0 11-6.7-6.7c3.7-.1 6.7 2.9 6.7 6.7zM549.8 821a6.7 6.7 0 11-6.7-6.7c3.7-.1 6.7 2.9 6.7 6.7zM584.5 821a6.7 6.7 0 11-6.7-6.7c3.7-.1 6.7 2.9 6.7 6.7zM619.1 821a6.7 6.7 0 11-6.7-6.7c3.7-.1 6.7 2.9 6.7 6.7zM653.8 821a6.7 6.7 0 11-6.7-6.7c3.6-.1 6.7 2.9 6.7 6.7zM688.4 821a6.7 6.7 0 11-6.7-6.7c3.7-.1 6.7 2.9 6.7 6.7z"/></g><g><path class="st1" d="M515.2 855.6a6.7 6.7 0 11-13.4 0 6.7 6.7 0 0113.4 0zM549.8 855.6a6.7 6.7 0 11-13.4 0 6.7 6.7 0 0113.4 0zM584.5 855.6a6.7 6.7 0 11-13.4 0 6.7 6.7 0 0113.4 0zM619.1 855.6a6.7 6.7 0 11-13.4 0 6.7 6.7 0 0113.4 0zM653.8 855.6a6.7 6.7 0 11-6.7-6.7c3.6 0 6.7 3 6.7 6.7zM688.4 855.6a6.7 6.7 0 11-13.4 0 6.7 6.7 0 0113.4 0z"/></g><g><path class="st1" d="M515.2 890.2a6.7 6.7 0 11-13.4 0 6.7 6.7 0 0113.4 0zM549.8 890.2a6.7 6.7 0 11-13.4 0 6.7 6.7 0 0113.4 0zM584.5 890.2a6.7 6.7 0 11-13.4 0 6.7 6.7 0 0113.4 0zM619.1 890.2a6.7 6.7 0 11-13.4 0 6.7 6.7 0 0113.4 0zM653.8 890.2a6.7 6.7 0 11-6.7-6.7c3.6 0 6.7 3 6.7 6.7zM688.4 890.2a6.7 6.7 0 11-13.4 0 6.7 6.7 0 0113.4 0z"/></g><g><path class="st1" d="M515.2 924.9a6.7 6.7 0 11-6.7-6.7c3.7-.1 6.7 3 6.7 6.7zM549.8 924.9a6.7 6.7 0 11-6.7-6.7c3.7-.1 6.7 3 6.7 6.7zM584.5 924.9a6.7 6.7 0 11-6.7-6.7c3.7-.1 6.7 3 6.7 6.7zM619.1 924.9a6.7 6.7 0 11-6.7-6.7c3.7-.1 6.7 3 6.7 6.7zM653.8 924.9a6.7 6.7 0 11-6.7-6.7c3.6-.1 6.7 3 6.7 6.7zM688.4 924.9a6.7 6.7 0 11-6.7-6.7c3.7-.1 6.7 3 6.7 6.7z"/></g></g></g><g class="st6"><defs><circle id="SVGID_7_" transform="rotate(-75.522 1227.192 261.514)" class="st6" cx="1227.1" cy="261.5" r="63.6"/></defs><clipPath id="SVGID_8_"><use xlink:href="#SVGID_7_" overflow="visible"/></clipPath><g clip-path="url(#SVGID_8_)"><path class="st3" d="M1154.8 209.4h144.6v5.1h-144.6zM1154.8 186h144.6v5.1h-144.6zM1154.8 197.7h144.6v5.1h-144.6zM1154.8 221.1h144.6v5.1h-144.6zM1154.8 232.8h144.6v5.1h-144.6zM1154.8 244.5h144.6v5.1h-144.6zM1154.8 256.2h144.6v5.1h-144.6zM1154.8 267.9h144.6v5.1h-144.6zM1154.8 279.6h144.6v5.1h-144.6zM1154.8 291.2h144.6v5.1h-144.6zM1154.8 302.9h144.6v5.1h-144.6zM1154.8 314.6h144.6v5.1h-144.6zM1154.8 326.3h144.6v5.1h-144.6z"/></g></g></g></g><g><path class="st2" d="M480.9-88.2c17.1 41.6-1.5 90.8-32.4 123.6s-72 53.5-110.6 76.7C262.1 157.7 191.6 217.4 152 296.5c-18.8 37.4-30.2 78.1-48.8 115.5s-46.5 73-85.7 87.4c-53.9 19.8-117.7-7.6-150.4-54.9s-37.8-109.4-25.6-165.5c12.2-56.1 40.1-107.5 69.3-156.9C-52.2 59.8-12.5-.8 29.9-59.4c8.8-12.2 18.2-24.7 31.4-32 16.2-8.9 35.6-8.6 54-8.1 121.8 3.5 243.6 7 365.4 10.4"/><path class="st3" d="M325.8-63.2C308.3-39.3 291.3-14 285.4 15c-7.4 36.5 3.5 73.9 8.6 110.8 5.1 36.9 2.4 79.2-25.1 104.3-29.6 26.9-75 23.4-113 35.8-59.1 19.4-96.6 76-127.8 129.8-19.2 33.1-44.7 70.8-83 71.3-31.3.4-57.6-26.8-66.2-56.9-8.6-30.1-3.5-62.2 2.8-92.9 19.5-95 49.1-187.9 88.3-276.6 8.1-18.2 17.1-37 32.8-49.2C24.6-25.5 54.4-26.4 82-27.5c79.9-3 159.6-13.2 237.7-30.5"/><path class="st4" d="M203.7-101.3c-35.8 20.6-44 68.2-44.8 109.5-.8 41.3.3 87.1-26.8 118.2-20.6 23.7-53.2 33.1-84.4 37.2-31.2 4.2-63.3 4.4-92.9 14.9-40 14.2-74.3 46.6-116.7 48.8-28.3 1.5-58.5-13.9-68.5-40.4-10.2-27 2.1-57.9 21.2-79.5S-165 70.6-142.9 52C-99.7 15.6-69.2-33.7-30-74.6c39.1-41 93.1-75.1 149.2-67 29.3 4.2 55.9 19.6 80.1 36.7"/><path class="st5" d="M301.7-142.2c-45 37-53 98.9-58.8 153.2-3.5 32.5-7 65.7-18.9 96.4-11.4 29.4-31.4 53.7-55.8 73.3-24.4 19.5-52.3 34.3-80.3 47.9-32.1 15.5-65 29-98.1 42.3-61.5 24.6-123.6 48.3-181.3 81.2-51.2 29.3-99.2 65.9-134.8 113.2-4.5 6-8.8 12.1-12.9 18.4-.5.8.7 1.5 1.2.7 33.3-51.2 80.7-91 132.5-122.5 56.7-34.5 118.5-59 179.9-83.5 32-12.8 64.1-25.6 95.4-39.9 28.8-13.2 57.6-27.3 83.8-45.3 23.3-16.1 44.7-35.7 59.4-60.1 16.4-27.2 23.3-58.7 27.5-89.8 7.8-57.4 7.6-123.2 47.2-169.9 4.5-5.3 9.5-10.2 14.9-14.6.8-.6-.2-1.6-.9-1z"/><path class="st2" d="M196.9-145.1c-40 16.6-73.4 47.8-92.3 86.8C81.7-11.2 82.2 43.2 67.9 93 52.7 145.5 27.6 194.4 3.3 243.2c-12.8 25.7-25.5 51.3-38.3 77-11.6 23.2-23.2 46.7-39.3 67.3-34.9 44.6-88.9 64.5-140.6 82.6-.9.3-.5 1.7.4 1.4 43.8-15.4 89.7-31.6 124.1-64.2 18.1-17.1 31.5-38.2 43.2-60 13-24.4 24.9-49.4 37.2-74.2 24.1-48.5 49.9-96.6 68.6-147.5 9.2-25 16.1-50.5 20.8-76.8 4.6-26.1 7.9-52.6 15.5-78 15.4-51.4 52.7-94 102.4-114.6.9-.3.5-1.7-.4-1.3z"/><circle transform="rotate(-26.996 213.675 379.007)" class="st2" cx="213.7" cy="379" r="19.8"/><circle class="st3" cx="384.6" cy="137.6" r="19.8"/><path class="st5" d="M527.9 25.4c-.9-4.4 2-8.7 6.4-9.6 4.4-.9 8.7 2 9.6 6.4.9 4.4-2 8.7-6.4 9.6-4.5.9-8.8-1.9-9.6-6.4z"/></g></g></svg>