<svg version="1.1" id="Layer_1" xmlns="http://www.w3.org/2000/svg" x="0" y="0" viewBox="0 0 200 200" xml:space="preserve"><style>.st1{fill:#121c43}.st2{fill:#f16667}</style><path class="st1" d="M152.6 113.8c-.8.2-1.7-.1-2.6-.8-2-1.6-4-3.1-6-4.7-.4-.3-.7-.4-1.2-.2-2.7 1.2-5.5 2.3-8.3 3.4-.5.2-.6.4-.7.9-.3 2.4-.7 4.9-.9 7.3-.1 1.6-.8 2.7-2.2 3.3h-14.3c-1.1-.6-2-1.4-2.1-2.8-.3-2.6-.6-5.1-.9-7.7-.1-.7-.3-.9-.9-1.1-2.7-1-5.3-2.1-7.9-3.3-.6-.3-.9-.3-1.5.1-2 1.6-4 3.2-6 4.7-1.5 1.2-3 1.1-4.3-.3-2.9-2.8-5.7-5.7-8.5-8.6-1.3-1.4-1.4-2.8-.3-4.3 1.6-2 3.2-4 4.8-6.1.2-.3.3-.8.2-1.1-1.1-2.8-2.3-5.7-3.5-8.5-.1-.3-.4-.5-.7-.6-2.6-.4-5.3-.7-8-1-1.7-.2-2.7-1.4-2.8-3V66.9c0-1.7 1.1-2.8 2.8-3l7.8-.9c.6-.1.8-.3 1-.8 1.1-2.7 2.2-5.4 3.4-8.1.3-.6.2-.9-.2-1.4-1.6-2-3.2-4-4.7-6-.7-.9-.9-1.7-.8-2.6L48.5 9.7H28c-9.9 0-18 8.1-18 18V172c0 9.9 8.1 18 18 18h144.2c9.9 0 18-8.1 18-18v-20.4l-37.6-37.8z"/><path class="st1" d="M122.7 98.2c4.1.2 8.1-.7 11.7-2.5l-33.1-33.1c-1.5 3-2.4 6.4-2.5 10-.5 12.8 9.3 25.1 23.9 25.6z"/><path class="st2" d="M124.4 48.7c-4.1-.2-8.1.7-11.7 2.5l33.1 33.1c1.4-2.9 2.3-6.2 2.4-9.7.7-13.1-9.3-25.2-23.8-25.9z"/><path class="st2" d="M172.2 9.7H71.3l23.4 23.4c.8-.1 1.6.2 2.4.8 2 1.6 4 3.2 6.1 4.8.3.2.8.3 1.1.2 2.8-1.1 5.7-2.3 8.5-3.5.3-.1.5-.4.6-.7.4-2.6.7-5.3 1-8 .2-1.7 1.4-2.7 3-2.8h12.5c1.7 0 2.8 1.1 3 2.8.3 2.6.7 5.1.9 7.7.1.7.3.9.9 1.1 2.7 1 5.3 2.1 7.9 3.3.6.3 1 .3 1.5-.1 2-1.6 4-3.2 6-4.7 1.5-1.2 3-1.1 4.3.3 2.9 2.8 5.7 5.7 8.5 8.6 1.4 1.4 1.4 2.8.3 4.3-1.6 2-3.2 4.1-4.8 6.1-.3.4-.4.7-.2 1.2 1.2 2.7 2.3 5.5 3.4 8.3.2.5.4.6.9.7 2.4.3 4.9.7 7.3.9 1.6.1 2.7.8 3.3 2.2v14.3c-.6 1.1-1.3 2-2.7 2.1-2.6.3-5.2.7-7.9.9-.6.1-.8.3-1 .8-1.1 2.7-2.2 5.4-3.4 8.1-.2.5-.2.8.1 1.3 1.6 2 3.2 4 4.7 6 .7.9.9 1.7.8 2.5l26.3 26.3V27.8c.3-10-7.8-18.1-17.8-18.1z"/></svg>