<svg id="Layer_1" data-name="Layer 1" xmlns="http://www.w3.org/2000/svg" viewBox="0 0 200 200"><defs><style>.cls-1{fill:#121c43;}.cls-2{fill:#f16667;}</style></defs><path class="cls-1" d="M152.57,113.84a3.19,3.19,0,0,1-2.64-.81q-3-2.34-6-4.73a1,1,0,0,0-1.2-.16q-4.11,1.77-8.28,3.42a.89.89,0,0,0-.69.86c-.27,2.44-.68,4.86-.87,7.29a3.7,3.7,0,0,1-2.19,3.34H116.38a3.51,3.51,0,0,1-2.13-2.76c-.27-2.56-.65-5.11-.9-7.68a1.14,1.14,0,0,0-.91-1.11q-4-1.56-7.92-3.27a1.17,1.17,0,0,0-1.45.13c-2,1.61-4,3.18-6,4.74a2.93,2.93,0,0,1-4.31-.26q-4.29-4.28-8.54-8.56A2.94,2.94,0,0,1,84,100c1.58-2,3.2-4,4.75-6.1a1.35,1.35,0,0,0,.19-1.08c-1.13-2.83-2.3-5.65-3.49-8.46a1.11,1.11,0,0,0-.72-.57c-2.64-.35-5.3-.67-8-1a2.92,2.92,0,0,1-2.75-3q0-6.24,0-12.48a3,3,0,0,1,2.75-3c2.59-.31,5.18-.65,7.77-.93a1,1,0,0,0,1-.8q1.6-4.08,3.36-8.09A1.14,1.14,0,0,0,88.67,53Q86.29,50,84,47a3.09,3.09,0,0,1-.76-2.55L48.47,9.74H28.05a18.08,18.08,0,0,0-18,18V172a18.08,18.08,0,0,0,18,18H172.24a18.08,18.08,0,0,0,18-18V151.53Z"/><path class="cls-1" d="M122.74,98.22a24.52,24.52,0,0,0,11.7-2.51L101.32,62.59a24.77,24.77,0,0,0,21.42,35.63Z"/><path class="cls-2" d="M124.44,48.75a24.63,24.63,0,0,0-11.66,2.45l33.06,33.05a25.22,25.22,0,0,0,2.42-9.72A24.73,24.73,0,0,0,124.44,48.75Z"/><path class="cls-2" d="M172.24,9.74H71.32L94.68,33.1a3.18,3.18,0,0,1,2.39.79c2,1.58,4.05,3.2,6.1,4.76a1.3,1.3,0,0,0,1.08.18c2.83-1.12,5.65-2.29,8.45-3.48a1.11,1.11,0,0,0,.58-.71c.35-2.65.67-5.31,1-8a2.92,2.92,0,0,1,3-2.75h12.48a2.94,2.94,0,0,1,3,2.75c.3,2.56.65,5.11.91,7.68a1.15,1.15,0,0,0,.9,1.12c2.66,1,5.31,2.12,7.92,3.27a1.17,1.17,0,0,0,1.45-.14c2-1.61,4-3.18,6-4.74a3,3,0,0,1,4.32.27c2.85,2.85,5.71,5.7,8.55,8.56a2.93,2.93,0,0,1,.25,4.31c-1.58,2-3.17,4.07-4.79,6.08a1,1,0,0,0-.15,1.2c1.18,2.74,2.33,5.5,3.43,8.28a.88.88,0,0,0,.86.69c2.43.27,4.85.68,7.29.87a3.73,3.73,0,0,1,3.34,2.19V80.65a3.47,3.47,0,0,1-2.67,2.11c-2.62.31-5.24.66-7.87.94-.58.06-.77.27-1,.8-1.08,2.72-2.2,5.41-3.36,8.09a1.05,1.05,0,0,0,.12,1.29c1.6,2,3.17,4,4.73,6a3.28,3.28,0,0,1,.85,2.46l26.34,26.34V27.76A18.07,18.07,0,0,0,172.24,9.74Z"/></svg>